<?xml version="1.0" encoding="UTF-8"?>
<!DOCTYPE svg PUBLIC "-//W3C//DTD SVG 1.1//EN" "http://www.w3.org/Graphics/SVG/1.1/DTD/svg11.dtd">
<!-- Creator: CorelDRAW -->
<svg xmlns="http://www.w3.org/2000/svg" xml:space="preserve" width="147.328mm" height="35.8326mm" version="1.1" style="shape-rendering:geometricPrecision; text-rendering:geometricPrecision; image-rendering:optimizeQuality; fill-rule:evenodd; clip-rule:evenodd"
viewBox="0 0 14732.82 3583.26"
 xmlns:xlink="http://www.w3.org/1999/xlink"
 xmlns:xodm="http://www.corel.com/coreldraw/odm/2003">
 <defs>
  <style type="text/css">
   <![CDATA[
    .fil0 {fill:#FF4400}
    .fil1 {fill:white;fill-rule:nonzero}
   ]]>
  </style>
 </defs>
 <g id="Layer_x0020_1">
  <metadata id="CorelCorpID_0Corel-Layer"/>
  <path class="fil0" d="M3066.61 2053.14c-0.32,-263.26 -36.42,-485.22 -122.99,-706.87 -67.34,-172.44 -214.41,-439.11 -324.08,-516.67 -76.06,73.97 -276.1,428.55 -640.84,261.69 -354.02,-161.96 -436.12,-708.01 -247.18,-1090.76 -166.55,28.42 -661.88,345.04 -785.99,437.25 -229.8,170.71 -458.08,375.26 -621.69,613.67 -950.47,1385.02 310.65,2898.78 1702.87,2452.83 544.82,-174.52 1037.78,-727.11 1039.9,-1451.14zm-1633.32 467.91c3.51,280 -99.13,529.89 -178,750.4 127.95,42.8 425.8,42.85 551.29,-1.13 -82.22,-215.39 -181.89,-475.08 -176.61,-749.44 56.62,49.1 86.86,148.35 250.59,197.69 128.5,38.73 252.51,19.33 354.03,-35.88 181.03,-98.46 305.54,-382.04 176.58,-626.93 -147.03,-279.2 -493.62,-332.28 -790.38,-768.5 -32.48,-47.75 -53.39,-107.57 -89.26,-147.34 -34.97,39.5 -52.52,90.9 -83.82,138.25 -280.42,424.36 -645.08,503.34 -790.68,767.86 -254.72,462.79 318.65,893.83 660.87,602.17 20.53,-17.49 41.28,-38.86 58.1,-59.14 11.94,-14.4 13.76,-19.34 25.75,-33.92 2.87,-3.48 12.16,-14.26 14.85,-17.27l16.69 -16.82z"/>
  <path class="fil1" d="M5553.14 2269.5l0 -7.36c0,-559.03 -301.58,-1070.25 -959.91,-1070.25 -573.75,0 -974.63,463.41 -974.63,1026.12l0 7.35c0,603.17 437.66,1018.76 1029.79,1018.76 356.75,0 621.56,-139.75 805.45,-367.78l-319.97 -283.19c-154.47,143.43 -290.55,202.28 -478.12,202.28 -250.09,0 -426.63,-132.4 -481.8,-386.18l1371.84 0c3.68,-51.49 7.35,-84.59 7.35,-139.75zm-544.32 -209.64l-842.22 0c44.13,-253.77 194.92,-419.27 426.63,-419.27 235.38,0 382.49,169.18 415.59,419.27zm3802.9 1140.13l0 -1283.57c0,-474.44 -250.1,-724.53 -665.69,-724.53 -268.49,0 -474.44,110.33 -647.3,312.62 -102.98,-198.61 -297.91,-312.62 -555.36,-312.62 -283.19,0 -452.37,150.79 -581.1,316.29l0 -279.51 -559.03 0 0 1971.32 559.03 0 0 -1099.67c0,-264.81 128.73,-400.89 338.37,-400.89 209.63,0 327.32,136.08 327.32,400.89l0 1099.67 559.04 0 0 -1099.67c0,-264.81 128.72,-400.89 338.36,-400.89 209.63,0 327.32,136.08 327.32,400.89l0 1099.67 559.04 0zm2390.6 -981.98l0 -7.36c0,-658.33 -437.67,-1018.76 -897.4,-1018.76 -290.55,0 -478.12,136.08 -614.2,319.97l0 -996.69 -559.03 0 0 2684.82 559.03 0 0 -257.45c132.41,158.15 316.3,294.23 614.2,294.23 467.09,0 897.4,-360.43 897.4,-1018.76zm-559.03 0c0,331 -220.68,544.32 -481.8,544.32 -261.13,0 -478.12,-217 -478.12,-544.32l0 -7.36c0,-327.33 216.99,-544.32 478.12,-544.32 261.12,0 481.8,216.99 481.8,544.32l0 7.36zm2644.36 51.49l0 -7.36c0,-559.03 -301.58,-1070.25 -959.91,-1070.25 -573.75,0 -974.63,463.41 -974.63,1026.12l0 7.35c0,603.17 437.66,1018.76 1029.79,1018.76 356.75,0 621.56,-139.75 805.45,-367.78l-319.97 -283.19c-154.47,143.43 -290.55,202.28 -478.12,202.28 -250.09,0 -426.63,-132.4 -481.8,-386.18l1371.84 0c3.68,-51.49 7.35,-84.59 7.35,-139.75zm-544.32 -209.64l-842.22 0c44.13,-253.77 194.92,-419.27 426.63,-419.27 235.38,0 382.49,169.18 415.59,419.27zm1982.37 -283.19l0 -584.78c-331.01,-14.71 -514.9,161.82 -628.92,433.98l0 -397.2 -559.03 0 0 1971.32 559.03 0 0 -728.21c0,-470.77 228.03,-695.11 599.49,-695.11l29.43 0z"/>
 </g>
</svg>
